STARTFONT 2.1
COMMENT
COMMENT Shinonome 12dot font for ISO 8859-1
COMMENT
COMMENT The original is designed by
COMMENT   Yasuyuki Furukawa <Furukawa.Yasuyuki@fujixerox.co.jp>, 2000.
COMMENT   (Public Domain)
COMMENT
COMMENT Modified and Maintained by /efont/.
COMMENT
COMMENT (c) /efont/ -- Efont Open Laboratory 2001
COMMENT http://openlab.ring.gr.jp/efont/
COMMENT
FONT -Shinonome-Gothic-Bold-I-Normal--12-110-75-75-C-60-ISO8859-1
SIZE 12 75 75
FONTBOUNDINGBOX 9 12 -1 -2
STARTPROPERTIES 19
FONTNAME_REGISTRY ""
FOUNDRY "Shinonome"
FAMILY_NAME "Gothic"
WEIGHT_NAME "Bold"
SLANT "I"
SETWIDTH_NAME "Normal"
ADD_STYLE_NAME ""
PIXEL_SIZE 12
POINT_SIZE 110
RESOLUTION_X 75
RESOLUTION_Y 75
SPACING "C"
AVERAGE_WIDTH 60
CHARSET_REGISTRY "ISO8859"
CHARSET_ENCODING "1"
DEFAULT_CHAR 32
FONT_DESCENT 2
FONT_ASCENT 10
COPYRIGHT "Public Domain" 
ENDPROPERTIES
CHARS 256
STARTCHAR 0
ENCODING 0
SWIDTH 960 0
DWIDTH 6 0
BBX 9 12 -1 -2
BITMAP
0000
0000
0000
0000
0000
0000
0000
0000
0000
0000
0000
0000
ENDCHAR
STARTCHAR 1
ENCODING 1
SWIDTH 960 0
DWIDTH 6 0
BBX 9 12 -1 -2
BITMAP
0000
0600
0600
1e00
1e00
3f00
7e00
3c00
3c00
3000
3000
0000
ENDCHAR
STARTCHAR 2
ENCODING 2
SWIDTH 960 0
DWIDTH 6 0
BBX 9 12 -1 -2
BITMAP
0d40
1a80
1d40
3500
1a80
3d00
3500
6a00
7500
d400
6a00
d400
ENDCHAR
STARTCHAR 3
ENCODING 3
SWIDTH 960 0
DWIDTH 6 0
BBX 9 12 -1 -2
BITMAP
0000
1a00
1a00
3c00
3400
3400
1e00
0c00
0c00
1800
1800
0000
ENDCHAR
STARTCHAR 4
ENCODING 4
SWIDTH 960 0
DWIDTH 6 0
BBX 9 12 -1 -2
BITMAP
0000
1e00
1800
3c00
3000
3c00
1e00
1800
1e00
3000
3000
0000
ENDCHAR
STARTCHAR 5
ENCODING 5
SWIDTH 960 0
DWIDTH 6 0
BBX 9 12 -1 -2
BITMAP
0000
0e00
1800
3000
3000
1c00
1c00
1a00
1c00
3400
3400
0000
ENDCHAR
STARTCHAR 6
ENCODING 6
SWIDTH 960 0
DWIDTH 6 0
BBX 9 12 -1 -2
BITMAP
0000
1800
1800
3000
3000
3c00
1e00
1800
1e00
3000
3000
0000
ENDCHAR
STARTCHAR 7
ENCODING 7
SWIDTH 960 0
DWIDTH 6 0
BBX 9 12 -1 -2
BITMAP
0000
0e00
1b00
0c00
0000
0000
0000
0000
0000
0000
0000
0000
ENDCHAR
STARTCHAR 8
ENCODING 8
SWIDTH 960 0
DWIDTH 6 0
BBX 9 12 -1 -2
BITMAP
0000
0600
0600
0c00
3f00
0c00
1800
1800
0000
fc00
0000
0000
ENDCHAR
STARTCHAR 9
ENCODING 9
SWIDTH 960 0
DWIDTH 6 0
BBX 9 12 -1 -2
BITMAP
0000
1c00
1c00
3400
3400
3400
1800
1800
1800
3000
3c00
0000
ENDCHAR
STARTCHAR a
ENCODING 10
SWIDTH 960 0
DWIDTH 6 0
BBX 9 12 -1 -2
BITMAP
0000
1a00
1a00
3400
3400
1800
1c00
1a00
1c00
3400
3400
0000
ENDCHAR
STARTCHAR b
ENCODING 11
SWIDTH 960 0
DWIDTH 6 0
BBX 9 12 -1 -2
BITMAP
0600
0600
0600
0c00
0c00
3c00
0000
0000
0000
0000
0000
0000
ENDCHAR
STARTCHAR c
ENCODING 12
SWIDTH 960 0
DWIDTH 6 0
BBX 9 12 -1 -2
BITMAP
0000
0000
0000
0000
0000
3c00
1800
1800
1800
3000
3000
3000
ENDCHAR
STARTCHAR d
ENCODING 13
SWIDTH 960 0
DWIDTH 6 0
BBX 9 12 -1 -2
BITMAP
0000
0000
0000
0000
0000
0f80
1800
1800
1800
3000
3000
3000
ENDCHAR
STARTCHAR e
ENCODING 14
SWIDTH 960 0
DWIDTH 6 0
BBX 9 12 -1 -2
BITMAP
0600
0600
0600
0c00
0c00
0f80
0000
0000
0000
0000
0000
0000
ENDCHAR
STARTCHAR f
ENCODING 15
SWIDTH 960 0
DWIDTH 6 0
BBX 9 12 -1 -2
BITMAP
0600
0600
0600
0c00
0c00
3f80
1800
1800
1800
3000
3000
3000
ENDCHAR
STARTCHAR 10
ENCODING 16
SWIDTH 960 0
DWIDTH 6 0
BBX 9 12 -1 -2
BITMAP
1fc0
0000
0000
0000
0000
0000
0000
0000
0000
0000
0000
0000
ENDCHAR
STARTCHAR 11
ENCODING 17
SWIDTH 960 0
DWIDTH 6 0
BBX 9 12 -1 -2
BITMAP
0000
0000
0000
3f80
0000
0000
0000
0000
0000
0000
0000
0000
ENDCHAR
STARTCHAR 12
ENCODING 18
SWIDTH 960 0
DWIDTH 6 0
BBX 9 12 -1 -2
BITMAP
0000
0000
0000
0000
0000
3f80
0000
0000
0000
0000
0000
0000
ENDCHAR
STARTCHAR 13
ENCODING 19
SWIDTH 960 0
DWIDTH 6 0
BBX 9 12 -1 -2
BITMAP
0000
0000
0000
0000
0000
0000
0000
0000
7f00
0000
0000
0000
ENDCHAR
STARTCHAR 14
ENCODING 20
SWIDTH 960 0
DWIDTH 6 0
BBX 9 12 -1 -2
BITMAP
0000
0000
0000
0000
0000
0000
0000
0000
0000
0000
0000
fe00
ENDCHAR
STARTCHAR 15
ENCODING 21
SWIDTH 960 0
DWIDTH 6 0
BBX 9 12 -1 -2
BITMAP
0600
0600
0600
0c00
0c00
0f80
1800
1800
1800
3000
3000
3000
ENDCHAR
STARTCHAR 16
ENCODING 22
SWIDTH 960 0
DWIDTH 6 0
BBX 9 12 -1 -2
BITMAP
0600
0600
0600
0c00
0c00
3c00
1800
1800
1800
3000
3000
3000
ENDCHAR
STARTCHAR 17
ENCODING 23
SWIDTH 960 0
DWIDTH 6 0
BBX 9 12 -1 -2
BITMAP
0600
0600
0600
0c00
0c00
3f80
0000
0000
0000
0000
0000
0000
ENDCHAR
STARTCHAR 18
ENCODING 24
SWIDTH 960 0
DWIDTH 6 0
BBX 9 12 -1 -2
BITMAP
0000
0000
0000
0000
0000
3f80
1800
1800
1800
3000
3000
3000
ENDCHAR
STARTCHAR 19
ENCODING 25
SWIDTH 960 0
DWIDTH 6 0
BBX 9 12 -1 -2
BITMAP
0600
0600
0600
0c00
0c00
0c00
1800
1800
1800
3000
3000
3000
ENDCHAR
STARTCHAR 1a
ENCODING 26
SWIDTH 960 0
DWIDTH 6 0
BBX 9 12 -1 -2
BITMAP
0000
0000
0780
1c00
3000
1800
0e00
7e00
0000
fc00
0000
0000
ENDCHAR
STARTCHAR 1b
ENCODING 27
SWIDTH 960 0
DWIDTH 6 0
BBX 9 12 -1 -2
BITMAP
0000
0000
1c00
0600
0300
0e00
7800
7e00
0000
fc00
0000
0000
ENDCHAR
STARTCHAR 1c
ENCODING 28
SWIDTH 960 0
DWIDTH 6 0
BBX 9 12 -1 -2
BITMAP
0000
0000
0000
3f00
1a00
1a00
3400
3400
6e00
c000
0000
0000
ENDCHAR
STARTCHAR 1d
ENCODING 29
SWIDTH 960 0
DWIDTH 6 0
BBX 9 12 -1 -2
BITMAP
0000
0180
0300
0600
3f00
0c00
7e00
3000
6000
c000
0000
0000
ENDCHAR
STARTCHAR 1e
ENCODING 30
SWIDTH 960 0
DWIDTH 6 0
BBX 9 12 -1 -2
BITMAP
0000
0380
0600
0c00
3f00
0c00
1800
1800
7800
da00
6c00
0000
ENDCHAR
STARTCHAR 1f
ENCODING 31
SWIDTH 960 0
DWIDTH 6 0
BBX 9 12 -1 -2
BITMAP
0000
0000
0000
0000
0000
0c00
0000
0000
0000
0000
0000
0000
ENDCHAR
STARTCHAR 20
ENCODING 32
SWIDTH 960 0
DWIDTH 6 0
BBX 9 12 -1 -2
BITMAP
0000
0000
0000
0000
0000
0000
0000
0000
0000
0000
0000
0000
ENDCHAR
STARTCHAR 21
ENCODING 33
SWIDTH 960 0
DWIDTH 6 0
BBX 9 12 -1 -2
BITMAP
0000
0600
0600
0c00
0c00
0c00
1800
1800
0000
3000
0000
0000
ENDCHAR
STARTCHAR 22
ENCODING 34
SWIDTH 960 0
DWIDTH 6 0
BBX 9 12 -1 -2
BITMAP
0000
0d00
0d00
1a00
0000
0000
0000
0000
0000
0000
0000
0000
ENDCHAR
STARTCHAR 23
ENCODING 35
SWIDTH 960 0
DWIDTH 6 0
BBX 9 12 -1 -2
BITMAP
0000
0d00
0d00
3f00
1a00
1a00
3400
7e00
3400
6800
0000
0000
ENDCHAR
STARTCHAR 24
ENCODING 36
SWIDTH 960 0
DWIDTH 6 0
BBX 9 12 -1 -2
BITMAP
0000
0600
0f00
1d00
3500
1c00
1c00
1a00
6c00
7800
3000
0000
ENDCHAR
STARTCHAR 25
ENCODING 37
SWIDTH 960 0
DWIDTH 6 0
BBX 9 12 -1 -2
BITMAP
0000
0d80
1b00
1d00
0600
0c00
1800
3400
3a00
6c00
c000
0000
ENDCHAR
STARTCHAR 26
ENCODING 38
SWIDTH 960 0
DWIDTH 6 0
BBX 9 12 -1 -2
BITMAP
0000
0c00
1a00
1a00
1c00
1800
3a00
6c00
6c00
7400
0000
0000
ENDCHAR
STARTCHAR 27
ENCODING 39
SWIDTH 960 0
DWIDTH 6 0
BBX 9 12 -1 -2
BITMAP
0000
0700
0600
0c00
0000
0000
0000
0000
0000
0000
0000
0000
ENDCHAR
STARTCHAR 28
ENCODING 40
SWIDTH 960 0
DWIDTH 6 0
BBX 9 12 -1 -2
BITMAP
0000
0180
0300
0600
0c00
0c00
1800
1800
1800
1800
0c00
0000
ENDCHAR
STARTCHAR 29
ENCODING 41
SWIDTH 960 0
DWIDTH 6 0
BBX 9 12 -1 -2
BITMAP
0000
1800
1800
1800
0c00
0c00
1800
1800
3000
6000
c000
0000
ENDCHAR
STARTCHAR 2a
ENCODING 42
SWIDTH 960 0
DWIDTH 6 0
BBX 9 12 -1 -2
BITMAP
0000
0000
0000
0c00
3500
3e00
6a00
1800
0000
0000
0000
0000
ENDCHAR
STARTCHAR 2b
ENCODING 43
SWIDTH 960 0
DWIDTH 6 0
BBX 9 12 -1 -2
BITMAP
0000
0000
0000
0c00
0c00
3f00
1800
1800
0000
0000
0000
0000
ENDCHAR
STARTCHAR 2c
ENCODING 44
SWIDTH 960 0
DWIDTH 6 0
BBX 9 12 -1 -2
BITMAP
0000
0000
0000
0000
0000
0000
0000
0000
1800
3000
6000
0000
ENDCHAR
STARTCHAR 2d
ENCODING 45
SWIDTH 960 0
DWIDTH 6 0
BBX 9 12 -1 -2
BITMAP
0000
0000
0000
0000
0000
3f00
0000
0000
0000
0000
0000
0000
ENDCHAR
STARTCHAR 2e
ENCODING 46
SWIDTH 960 0
DWIDTH 6 0
BBX 9 12 -1 -2
BITMAP
0000
0000
0000
0000
0000
0000
0000
0000
1800
0000
0000
0000
ENDCHAR
STARTCHAR 2f
ENCODING 47
SWIDTH 960 0
DWIDTH 6 0
BBX 9 12 -1 -2
BITMAP
0000
0180
0300
0300
0600
0c00
1800
3000
6000
6000
c000
0000
ENDCHAR
STARTCHAR 30
ENCODING 48
SWIDTH 960 0
DWIDTH 6 0
BBX 9 12 -1 -2
BITMAP
0000
0600
0d00
1b00
1b00
1b00
3600
3600
3400
3800
0000
0000
ENDCHAR
STARTCHAR 31
ENCODING 49
SWIDTH 960 0
DWIDTH 6 0
BBX 9 12 -1 -2
BITMAP
0000
0600
1e00
0c00
0c00
0c00
1800
1800
1800
3000
0000
0000
ENDCHAR
STARTCHAR 32
ENCODING 50
SWIDTH 960 0
DWIDTH 6 0
BBX 9 12 -1 -2
BITMAP
0000
0e00
1b00
3300
0300
0600
1c00
3000
6000
fc00
0000
0000
ENDCHAR
STARTCHAR 33
ENCODING 51
SWIDTH 960 0
DWIDTH 6 0
BBX 9 12 -1 -2
BITMAP
0000
0e00
1b00
0300
0c00
0600
0600
6600
6c00
3800
0000
0000
ENDCHAR
STARTCHAR 34
ENCODING 52
SWIDTH 960 0
DWIDTH 6 0
BBX 9 12 -1 -2
BITMAP
0000
0300
0700
0e00
1a00
3600
6c00
7e00
0c00
1800
0000
0000
ENDCHAR
STARTCHAR 35
ENCODING 53
SWIDTH 960 0
DWIDTH 6 0
BBX 9 12 -1 -2
BITMAP
0000
1f00
1800
3000
3c00
3600
0600
0600
6c00
3800
0000
0000
ENDCHAR
STARTCHAR 36
ENCODING 54
SWIDTH 960 0
DWIDTH 6 0
BBX 9 12 -1 -2
BITMAP
0000
0700
0c00
1800
3c00
3600
6600
6600
6c00
3800
0000
0000
ENDCHAR
STARTCHAR 37
ENCODING 55
SWIDTH 960 0
DWIDTH 6 0
BBX 9 12 -1 -2
BITMAP
0000
1f80
0180
0300
0600
0c00
0c00
1800
1800
3000
0000
0000
ENDCHAR
STARTCHAR 38
ENCODING 56
SWIDTH 960 0
DWIDTH 6 0
BBX 9 12 -1 -2
BITMAP
0000
0e00
1b00
1b00
1c00
3600
6600
6600
6c00
3800
0000
0000
ENDCHAR
STARTCHAR 39
ENCODING 57
SWIDTH 960 0
DWIDTH 6 0
BBX 9 12 -1 -2
BITMAP
0000
0e00
1b00
3300
3300
1f00
0600
0600
1c00
7000
0000
0000
ENDCHAR
STARTCHAR 3a
ENCODING 58
SWIDTH 960 0
DWIDTH 6 0
BBX 9 12 -1 -2
BITMAP
0000
0000
0000
0000
0c00
0000
0000
1800
0000
0000
0000
0000
ENDCHAR
STARTCHAR 3b
ENCODING 59
SWIDTH 960 0
DWIDTH 6 0
BBX 9 12 -1 -2
BITMAP
0000
0000
0000
0c00
0000
0000
1800
1800
3000
0000
0000
0000
ENDCHAR
STARTCHAR 3c
ENCODING 60
SWIDTH 960 0
DWIDTH 6 0
BBX 9 12 -1 -2
BITMAP
0000
0000
0380
0600
0c00
1800
1800
0c00
0600
0000
0000
0000
ENDCHAR
STARTCHAR 3d
ENCODING 61
SWIDTH 960 0
DWIDTH 6 0
BBX 9 12 -1 -2
BITMAP
0000
0000
0000
0000
3f00
0000
7e00
0000
0000
0000
0000
0000
ENDCHAR
STARTCHAR 3e
ENCODING 62
SWIDTH 960 0
DWIDTH 6 0
BBX 9 12 -1 -2
BITMAP
0000
0000
0c00
0c00
0600
0700
0c00
1800
3000
0000
0000
0000
ENDCHAR
STARTCHAR 3f
ENCODING 63
SWIDTH 960 0
DWIDTH 6 0
BBX 9 12 -1 -2
BITMAP
0000
0f00
1b00
3300
0600
0c00
0c00
1800
0000
3000
0000
0000
ENDCHAR
STARTCHAR 40
ENCODING 64
SWIDTH 960 0
DWIDTH 6 0
BBX 9 12 -1 -2
BITMAP
0000
0f00
1980
3700
3500
3500
6e00
6c00
6e00
3800
0000
0000
ENDCHAR
STARTCHAR 41
ENCODING 65
SWIDTH 960 0
DWIDTH 6 0
BBX 9 12 -1 -2
BITMAP
0000
0600
0600
0e00
1a00
1a00
3e00
6600
6600
cc00
0000
0000
ENDCHAR
STARTCHAR 42
ENCODING 66
SWIDTH 960 0
DWIDTH 6 0
BBX 9 12 -1 -2
BITMAP
0000
1f00
1b00
3300
3600
3e00
6600
6600
6c00
f800
0000
0000
ENDCHAR
STARTCHAR 43
ENCODING 67
SWIDTH 960 0
DWIDTH 6 0
BBX 9 12 -1 -2
BITMAP
0000
0600
0d00
1b00
3000
3000
6000
6600
3400
3800
0000
0000
ENDCHAR
STARTCHAR 44
ENCODING 68
SWIDTH 960 0
DWIDTH 6 0
BBX 9 12 -1 -2
BITMAP
0000
1e00
1b00
3300
3300
3300
6600
6600
6c00
f000
0000
0000
ENDCHAR
STARTCHAR 45
ENCODING 69
SWIDTH 960 0
DWIDTH 6 0
BBX 9 12 -1 -2
BITMAP
0000
1f80
1800
3000
3000
3e00
6000
6000
6000
fc00
0000
0000
ENDCHAR
STARTCHAR 46
ENCODING 70
SWIDTH 960 0
DWIDTH 6 0
BBX 9 12 -1 -2
BITMAP
0000
1f80
1800
3000
3000
3e00
6000
6000
6000
c000
0000
0000
ENDCHAR
STARTCHAR 47
ENCODING 71
SWIDTH 960 0
DWIDTH 6 0
BBX 9 12 -1 -2
BITMAP
0000
0700
0d80
1800
3000
3700
6600
6600
3600
1c00
0000
0000
ENDCHAR
STARTCHAR 48
ENCODING 72
SWIDTH 960 0
DWIDTH 6 0
BBX 9 12 -1 -2
BITMAP
0000
1980
1980
3300
3300
3f00
6600
6600
6600
cc00
0000
0000
ENDCHAR
STARTCHAR 49
ENCODING 73
SWIDTH 960 0
DWIDTH 6 0
BBX 9 12 -1 -2
BITMAP
0000
0f00
0600
0c00
0c00
0c00
1800
1800
1800
7800
0000
0000
ENDCHAR
STARTCHAR 4a
ENCODING 74
SWIDTH 960 0
DWIDTH 6 0
BBX 9 12 -1 -2
BITMAP
0000
0300
0300
0600
0600
0600
0c00
6c00
6800
7000
0000
0000
ENDCHAR
STARTCHAR 4b
ENCODING 75
SWIDTH 960 0
DWIDTH 6 0
BBX 9 12 -1 -2
BITMAP
0000
1980
1b00
3400
3800
3800
6800
6c00
6c00
cc00
0000
0000
ENDCHAR
STARTCHAR 4c
ENCODING 76
SWIDTH 960 0
DWIDTH 6 0
BBX 9 12 -1 -2
BITMAP
0000
1800
1800
3000
3000
3000
6000
6000
6000
fc00
0000
0000
ENDCHAR
STARTCHAR 4d
ENCODING 77
SWIDTH 960 0
DWIDTH 6 0
BBX 9 12 -1 -2
BITMAP
0000
1980
1980
3b00
3b00
3f00
6a00
6a00
6a00
cc00
0000
0000
ENDCHAR
STARTCHAR 4e
ENCODING 78
SWIDTH 960 0
DWIDTH 6 0
BBX 9 12 -1 -2
BITMAP
0000
1980
1d80
3b00
3500
3500
6e00
6e00
6600
cc00
0000
0000
ENDCHAR
STARTCHAR 4f
ENCODING 79
SWIDTH 960 0
DWIDTH 6 0
BBX 9 12 -1 -2
BITMAP
0000
0e00
1b00
3300
3300
3300
6600
6600
6c00
3800
0000
0000
ENDCHAR
STARTCHAR 50
ENCODING 80
SWIDTH 960 0
DWIDTH 6 0
BBX 9 12 -1 -2
BITMAP
0000
1e00
1b00
3300
3300
3e00
6000
6000
6000
c000
0000
0000
ENDCHAR
STARTCHAR 51
ENCODING 81
SWIDTH 960 0
DWIDTH 6 0
BBX 9 12 -1 -2
BITMAP
0000
0e00
1b00
3300
3300
3300
6600
6a00
6c00
3400
0000
0000
ENDCHAR
STARTCHAR 52
ENCODING 82
SWIDTH 960 0
DWIDTH 6 0
BBX 9 12 -1 -2
BITMAP
0000
1e00
1b00
3300
3300
3e00
6c00
6600
6600
cc00
0000
0000
ENDCHAR
STARTCHAR 53
ENCODING 83
SWIDTH 960 0
DWIDTH 6 0
BBX 9 12 -1 -2
BITMAP
0000
0f00
1980
1800
0c00
0600
0600
6600
6c00
3800
0000
0000
ENDCHAR
STARTCHAR 54
ENCODING 84
SWIDTH 960 0
DWIDTH 6 0
BBX 9 12 -1 -2
BITMAP
0000
1f80
0600
0c00
0c00
0c00
1800
1800
1800
3000
0000
0000
ENDCHAR
STARTCHAR 55
ENCODING 85
SWIDTH 960 0
DWIDTH 6 0
BBX 9 12 -1 -2
BITMAP
0000
1980
1980
3300
3300
3300
6600
6600
6c00
3800
0000
0000
ENDCHAR
STARTCHAR 56
ENCODING 86
SWIDTH 960 0
DWIDTH 6 0
BBX 9 12 -1 -2
BITMAP
0000
1980
1980
3300
3300
3600
3400
3400
3800
3000
0000
0000
ENDCHAR
STARTCHAR 57
ENCODING 87
SWIDTH 960 0
DWIDTH 6 0
BBX 9 12 -1 -2
BITMAP
0000
1a80
1a80
3500
3500
3600
3a00
3400
3400
6800
0000
0000
ENDCHAR
STARTCHAR 58
ENCODING 88
SWIDTH 960 0
DWIDTH 6 0
BBX 9 12 -1 -2
BITMAP
0000
1980
1b00
1b00
1a00
0c00
1c00
3400
6c00
cc00
0000
0000
ENDCHAR
STARTCHAR 59
ENCODING 89
SWIDTH 960 0
DWIDTH 6 0
BBX 9 12 -1 -2
BITMAP
0000
1980
1b00
1b00
1a00
1c00
1800
1800
1800
3000
0000
0000
ENDCHAR
STARTCHAR 5a
ENCODING 90
SWIDTH 960 0
DWIDTH 6 0
BBX 9 12 -1 -2
BITMAP
0000
1f80
0180
0300
0600
0c00
1800
3000
6000
fc00
0000
0000
ENDCHAR
STARTCHAR 5b
ENCODING 91
SWIDTH 960 0
DWIDTH 6 0
BBX 9 12 -1 -2
BITMAP
0000
0780
0600
0c00
0c00
0c00
1800
1800
1800
3000
3000
3c00
ENDCHAR
STARTCHAR 5c
ENCODING 92
SWIDTH 960 0
DWIDTH 6 0
BBX 9 12 -1 -2
BITMAP
0000
1800
1800
1800
1800
1800
1800
0c00
0c00
0c00
0c00
0000
ENDCHAR
STARTCHAR 5d
ENCODING 93
SWIDTH 960 0
DWIDTH 6 0
BBX 9 12 -1 -2
BITMAP
0000
0f00
0300
0600
0600
0600
0c00
0c00
0c00
1800
1800
7800
ENDCHAR
STARTCHAR 5e
ENCODING 94
SWIDTH 960 0
DWIDTH 6 0
BBX 9 12 -1 -2
BITMAP
0000
0600
1d00
3300
0000
0000
0000
0000
0000
0000
0000
0000
ENDCHAR
STARTCHAR 5f
ENCODING 95
SWIDTH 960 0
DWIDTH 6 0
BBX 9 12 -1 -2
BITMAP
0000
0000
0000
0000
0000
0000
0000
0000
0000
fc00
0000
0000
ENDCHAR
STARTCHAR 60
ENCODING 96
SWIDTH 960 0
DWIDTH 6 0
BBX 9 12 -1 -2
BITMAP
0000
0700
0600
0600
0000
0000
0000
0000
0000
0000
0000
0000
ENDCHAR
STARTCHAR 61
ENCODING 97
SWIDTH 960 0
DWIDTH 6 0
BBX 9 12 -1 -2
BITMAP
0000
0000
0000
1e00
3300
0f00
3a00
6600
6e00
3400
0000
0000
ENDCHAR
STARTCHAR 62
ENCODING 98
SWIDTH 960 0
DWIDTH 6 0
BBX 9 12 -1 -2
BITMAP
0000
1800
1800
3600
3b00
3300
6600
6600
7400
d800
0000
0000
ENDCHAR
STARTCHAR 63
ENCODING 99
SWIDTH 960 0
DWIDTH 6 0
BBX 9 12 -1 -2
BITMAP
0000
0000
0000
1e00
3300
3000
6000
6000
6e00
3800
0000
0000
ENDCHAR
STARTCHAR 64
ENCODING 100
SWIDTH 960 0
DWIDTH 6 0
BBX 9 12 -1 -2
BITMAP
0000
0180
0180
1d00
3700
3300
6600
6600
6e00
3400
0000
0000
ENDCHAR
STARTCHAR 65
ENCODING 101
SWIDTH 960 0
DWIDTH 6 0
BBX 9 12 -1 -2
BITMAP
0000
0000
0000
1e00
3300
3300
7e00
6000
6e00
3800
0000
0000
ENDCHAR
STARTCHAR 66
ENCODING 102
SWIDTH 960 0
DWIDTH 6 0
BBX 9 12 -1 -2
BITMAP
0000
0380
0600
1e00
0c00
0c00
1800
1800
1800
3000
0000
0000
ENDCHAR
STARTCHAR 67
ENCODING 103
SWIDTH 960 0
DWIDTH 6 0
BBX 9 12 -1 -2
BITMAP
0000
0000
0000
1f00
3300
3300
6600
6e00
3a00
0c00
cc00
7800
ENDCHAR
STARTCHAR 68
ENCODING 104
SWIDTH 960 0
DWIDTH 6 0
BBX 9 12 -1 -2
BITMAP
0000
1800
1800
3600
3b00
3300
6600
6600
6600
cc00
0000
0000
ENDCHAR
STARTCHAR 69
ENCODING 105
SWIDTH 960 0
DWIDTH 6 0
BBX 9 12 -1 -2
BITMAP
0000
0600
0000
0c00
0c00
0c00
1800
1800
1800
3000
0000
0000
ENDCHAR
STARTCHAR 6a
ENCODING 106
SWIDTH 960 0
DWIDTH 6 0
BBX 9 12 -1 -2
BITMAP
0000
0600
0000
0c00
0c00
0c00
1800
1800
1800
3000
3000
6000
ENDCHAR
STARTCHAR 6b
ENCODING 107
SWIDTH 960 0
DWIDTH 6 0
BBX 9 12 -1 -2
BITMAP
0000
1800
1800
3000
3600
3c00
7000
6800
6c00
cc00
0000
0000
ENDCHAR
STARTCHAR 6c
ENCODING 108
SWIDTH 960 0
DWIDTH 6 0
BBX 9 12 -1 -2
BITMAP
0000
0600
0600
0c00
0c00
0c00
1800
1800
1800
3000
0000
0000
ENDCHAR
STARTCHAR 6d
ENCODING 109
SWIDTH 960 0
DWIDTH 6 0
BBX 9 12 -1 -2
BITMAP
0000
0000
0000
3e00
3500
3500
6a00
6a00
6a00
d400
0000
0000
ENDCHAR
STARTCHAR 6e
ENCODING 110
SWIDTH 960 0
DWIDTH 6 0
BBX 9 12 -1 -2
BITMAP
0000
0000
0000
3600
3b00
3300
6600
6600
6600
cc00
0000
0000
ENDCHAR
STARTCHAR 6f
ENCODING 111
SWIDTH 960 0
DWIDTH 6 0
BBX 9 12 -1 -2
BITMAP
0000
0000
0000
1e00
3300
3300
6600
6600
6c00
3800
0000
0000
ENDCHAR
STARTCHAR 70
ENCODING 112
SWIDTH 960 0
DWIDTH 6 0
BBX 9 12 -1 -2
BITMAP
0000
0000
0000
3600
3b00
3300
6600
6600
7400
d800
c000
c000
ENDCHAR
STARTCHAR 71
ENCODING 113
SWIDTH 960 0
DWIDTH 6 0
BBX 9 12 -1 -2
BITMAP
0000
0000
0000
1d00
3700
3300
6600
6600
6e00
3400
0c00
0c00
ENDCHAR
STARTCHAR 72
ENCODING 114
SWIDTH 960 0
DWIDTH 6 0
BBX 9 12 -1 -2
BITMAP
0000
0000
0000
1b00
1c00
1800
3000
3000
3000
6000
0000
0000
ENDCHAR
STARTCHAR 73
ENCODING 115
SWIDTH 960 0
DWIDTH 6 0
BBX 9 12 -1 -2
BITMAP
0000
0000
0000
1e00
3300
1800
0c00
0600
6c00
3800
0000
0000
ENDCHAR
STARTCHAR 74
ENCODING 116
SWIDTH 960 0
DWIDTH 6 0
BBX 9 12 -1 -2
BITMAP
0000
0c00
0c00
3e00
1800
1800
3000
3000
3000
7000
0000
0000
ENDCHAR
STARTCHAR 75
ENCODING 117
SWIDTH 960 0
DWIDTH 6 0
BBX 9 12 -1 -2
BITMAP
0000
0000
0000
3300
3300
3300
6600
6600
6e00
3400
0000
0000
ENDCHAR
STARTCHAR 76
ENCODING 118
SWIDTH 960 0
DWIDTH 6 0
BBX 9 12 -1 -2
BITMAP
0000
0000
0000
3300
3300
3600
3600
3400
3800
3000
0000
0000
ENDCHAR
STARTCHAR 77
ENCODING 119
SWIDTH 960 0
DWIDTH 6 0
BBX 9 12 -1 -2
BITMAP
0000
0000
0000
3300
3500
3500
6a00
6a00
7c00
6800
0000
0000
ENDCHAR
STARTCHAR 78
ENCODING 120
SWIDTH 960 0
DWIDTH 6 0
BBX 9 12 -1 -2
BITMAP
0000
0000
0000
3300
1a00
1c00
1800
3400
6c00
cc00
0000
0000
ENDCHAR
STARTCHAR 79
ENCODING 121
SWIDTH 960 0
DWIDTH 6 0
BBX 9 12 -1 -2
BITMAP
0000
0000
0000
3300
3300
3600
3600
3400
3800
3000
6000
c000
ENDCHAR
STARTCHAR 7a
ENCODING 122
SWIDTH 960 0
DWIDTH 6 0
BBX 9 12 -1 -2
BITMAP
0000
0000
0000
3f00
0600
0c00
1800
3000
3000
fc00
0000
0000
ENDCHAR
STARTCHAR 7b
ENCODING 123
SWIDTH 960 0
DWIDTH 6 0
BBX 9 12 -1 -2
BITMAP
0000
0180
0300
0600
0600
0c00
1800
0c00
0c00
1800
1800
0c00
ENDCHAR
STARTCHAR 7c
ENCODING 124
SWIDTH 960 0
DWIDTH 6 0
BBX 9 12 -1 -2
BITMAP
0000
0600
0600
0c00
0c00
0c00
1800
1800
1800
3000
3000
3000
ENDCHAR
STARTCHAR 7d
ENCODING 125
SWIDTH 960 0
DWIDTH 6 0
BBX 9 12 -1 -2
BITMAP
0000
0c00
0c00
0c00
0c00
0c00
0c00
1800
1800
3000
3000
6000
ENDCHAR
STARTCHAR 7e
ENCODING 126
SWIDTH 960 0
DWIDTH 6 0
BBX 9 12 -1 -2
BITMAP
0000
0000
0000
1b00
3600
0000
0000
0000
0000
0000
0000
0000
ENDCHAR
STARTCHAR 7f
ENCODING 127
SWIDTH 960 0
DWIDTH 6 0
BBX 9 12 -1 -2
BITMAP
0000
0000
0000
0000
0000
0000
0000
0000
0000
0000
0000
0000
ENDCHAR
STARTCHAR 80
ENCODING 128
SWIDTH 960 0
DWIDTH 6 0
BBX 9 12 -1 -2
BITMAP
0000
0000
0000
0000
0000
0000
0000
0000
0000
0000
0000
0000
ENDCHAR
STARTCHAR 81
ENCODING 129
SWIDTH 960 0
DWIDTH 6 0
BBX 9 12 -1 -2
BITMAP
0000
0000
0000
0000
0000
0000
0000
0000
0000
0000
0000
0000
ENDCHAR
STARTCHAR 82
ENCODING 130
SWIDTH 960 0
DWIDTH 6 0
BBX 9 12 -1 -2
BITMAP
0000
0000
0000
0000
0000
0000
0000
0000
0000
0000
0000
0000
ENDCHAR
STARTCHAR 83
ENCODING 131
SWIDTH 960 0
DWIDTH 6 0
BBX 9 12 -1 -2
BITMAP
0000
0000
0000
0000
0000
0000
0000
0000
0000
0000
0000
0000
ENDCHAR
STARTCHAR 84
ENCODING 132
SWIDTH 960 0
DWIDTH 6 0
BBX 9 12 -1 -2
BITMAP
0000
0000
0000
0000
0000
0000
0000
0000
0000
0000
0000
0000
ENDCHAR
STARTCHAR 85
ENCODING 133
SWIDTH 960 0
DWIDTH 6 0
BBX 9 12 -1 -2
BITMAP
0000
0000
0000
0000
0000
0000
0000
0000
0000
0000
0000
0000
ENDCHAR
STARTCHAR 86
ENCODING 134
SWIDTH 960 0
DWIDTH 6 0
BBX 9 12 -1 -2
BITMAP
0000
0000
0000
0000
0000
0000
0000
0000
0000
0000
0000
0000
ENDCHAR
STARTCHAR 87
ENCODING 135
SWIDTH 960 0
DWIDTH 6 0
BBX 9 12 -1 -2
BITMAP
0000
0000
0000
0000
0000
0000
0000
0000
0000
0000
0000
0000
ENDCHAR
STARTCHAR 88
ENCODING 136
SWIDTH 960 0
DWIDTH 6 0
BBX 9 12 -1 -2
BITMAP
0000
0000
0000
0000
0000
0000
0000
0000
0000
0000
0000
0000
ENDCHAR
STARTCHAR 89
ENCODING 137
SWIDTH 960 0
DWIDTH 6 0
BBX 9 12 -1 -2
BITMAP
0000
0000
0000
0000
0000
0000
0000
0000
0000
0000
0000
0000
ENDCHAR
STARTCHAR 8a
ENCODING 138
SWIDTH 960 0
DWIDTH 6 0
BBX 9 12 -1 -2
BITMAP
0000
0000
0000
0000
0000
0000
0000
0000
0000
0000
0000
0000
ENDCHAR
STARTCHAR 8b
ENCODING 139
SWIDTH 960 0
DWIDTH 6 0
BBX 9 12 -1 -2
BITMAP
0000
0000
0000
0000
0000
0000
0000
0000
0000
0000
0000
0000
ENDCHAR
STARTCHAR 8c
ENCODING 140
SWIDTH 960 0
DWIDTH 6 0
BBX 9 12 -1 -2
BITMAP
0000
0000
0000
0000
0000
0000
0000
0000
0000
0000
0000
0000
ENDCHAR
STARTCHAR 8d
ENCODING 141
SWIDTH 960 0
DWIDTH 6 0
BBX 9 12 -1 -2
BITMAP
0000
0000
0000
0000
0000
0000
0000
0000
0000
0000
0000
0000
ENDCHAR
STARTCHAR 8e
ENCODING 142
SWIDTH 960 0
DWIDTH 6 0
BBX 9 12 -1 -2
BITMAP
0000
0000
0000
0000
0000
0000
0000
0000
0000
0000
0000
0000
ENDCHAR
STARTCHAR 8f
ENCODING 143
SWIDTH 960 0
DWIDTH 6 0
BBX 9 12 -1 -2
BITMAP
0000
0000
0000
0000
0000
0000
0000
0000
0000
0000
0000
0000
ENDCHAR
STARTCHAR 90
ENCODING 144
SWIDTH 960 0
DWIDTH 6 0
BBX 9 12 -1 -2
BITMAP
0000
0000
0000
0000
0000
0000
0000
0000
0000
0000
0000
0000
ENDCHAR
STARTCHAR 91
ENCODING 145
SWIDTH 960 0
DWIDTH 6 0
BBX 9 12 -1 -2
BITMAP
0000
0000
0000
0000
0000
0000
0000
0000
0000
0000
0000
0000
ENDCHAR
STARTCHAR 92
ENCODING 146
SWIDTH 960 0
DWIDTH 6 0
BBX 9 12 -1 -2
BITMAP
0000
0000
0000
0000
0000
0000
0000
0000
0000
0000
0000
0000
ENDCHAR
STARTCHAR 93
ENCODING 147
SWIDTH 960 0
DWIDTH 6 0
BBX 9 12 -1 -2
BITMAP
0000
0000
0000
0000
0000
0000
0000
0000
0000
0000
0000
0000
ENDCHAR
STARTCHAR 94
ENCODING 148
SWIDTH 960 0
DWIDTH 6 0
BBX 9 12 -1 -2
BITMAP
0000
0000
0000
0000
0000
0000
0000
0000
0000
0000
0000
0000
ENDCHAR
STARTCHAR 95
ENCODING 149
SWIDTH 960 0
DWIDTH 6 0
BBX 9 12 -1 -2
BITMAP
0000
0000
0000
0000
0000
0000
0000
0000
0000
0000
0000
0000
ENDCHAR
STARTCHAR 96
ENCODING 150
SWIDTH 960 0
DWIDTH 6 0
BBX 9 12 -1 -2
BITMAP
0000
0000
0000
0000
0000
0000
0000
0000
0000
0000
0000
0000
ENDCHAR
STARTCHAR 97
ENCODING 151
SWIDTH 960 0
DWIDTH 6 0
BBX 9 12 -1 -2
BITMAP
0000
0000
0000
0000
0000
0000
0000
0000
0000
0000
0000
0000
ENDCHAR
STARTCHAR 98
ENCODING 152
SWIDTH 960 0
DWIDTH 6 0
BBX 9 12 -1 -2
BITMAP
0000
0000
0000
0000
0000
0000
0000
0000
0000
0000
0000
0000
ENDCHAR
STARTCHAR 99
ENCODING 153
SWIDTH 960 0
DWIDTH 6 0
BBX 9 12 -1 -2
BITMAP
0000
0000
0000
0000
0000
0000
0000
0000
0000
0000
0000
0000
ENDCHAR
STARTCHAR 9a
ENCODING 154
SWIDTH 960 0
DWIDTH 6 0
BBX 9 12 -1 -2
BITMAP
0000
0000
0000
0000
0000
0000
0000
0000
0000
0000
0000
0000
ENDCHAR
STARTCHAR 9b
ENCODING 155
SWIDTH 960 0
DWIDTH 6 0
BBX 9 12 -1 -2
BITMAP
0000
0000
0000
0000
0000
0000
0000
0000
0000
0000
0000
0000
ENDCHAR
STARTCHAR 9c
ENCODING 156
SWIDTH 960 0
DWIDTH 6 0
BBX 9 12 -1 -2
BITMAP
0000
0000
0000
0000
0000
0000
0000
0000
0000
0000
0000
0000
ENDCHAR
STARTCHAR 9d
ENCODING 157
SWIDTH 960 0
DWIDTH 6 0
BBX 9 12 -1 -2
BITMAP
0000
0000
0000
0000
0000
0000
0000
0000
0000
0000
0000
0000
ENDCHAR
STARTCHAR 9e
ENCODING 158
SWIDTH 960 0
DWIDTH 6 0
BBX 9 12 -1 -2
BITMAP
0000
0000
0000
0000
0000
0000
0000
0000
0000
0000
0000
0000
ENDCHAR
STARTCHAR 9f
ENCODING 159
SWIDTH 960 0
DWIDTH 6 0
BBX 9 12 -1 -2
BITMAP
0000
0000
0000
0000
0000
0000
0000
0000
0000
0000
0000
0000
ENDCHAR
STARTCHAR a0
ENCODING 160
SWIDTH 960 0
DWIDTH 6 0
BBX 9 12 -1 -2
BITMAP
0000
0000
0000
0000
0000
0000
0000
0000
0000
0000
0000
0000
ENDCHAR
STARTCHAR a1
ENCODING 161
SWIDTH 960 0
DWIDTH 6 0
BBX 9 12 -1 -2
BITMAP
0000
0600
0000
0c00
0c00
0c00
1800
1800
1800
3000
0000
0000
ENDCHAR
STARTCHAR a2
ENCODING 162
SWIDTH 960 0
DWIDTH 6 0
BBX 9 12 -1 -2
BITMAP
0000
0000
0300
1e00
3700
3400
6800
6800
7600
7800
6000
0000
ENDCHAR
STARTCHAR a3
ENCODING 163
SWIDTH 960 0
DWIDTH 6 0
BBX 9 12 -1 -2
BITMAP
0000
0300
0680
0c00
1f00
0c00
1800
1800
7a00
d400
6800
0000
ENDCHAR
STARTCHAR a4
ENCODING 164
SWIDTH 960 0
DWIDTH 6 0
BBX 9 12 -1 -2
BITMAP
0000
0000
0000
3300
1e00
1a00
3c00
6600
0000
0000
0000
0000
ENDCHAR
STARTCHAR a5
ENCODING 165
SWIDTH 960 0
DWIDTH 6 0
BBX 9 12 -1 -2
BITMAP
0000
1980
1b00
1a00
3f00
0c00
7e00
1800
1800
3000
0000
0000
ENDCHAR
STARTCHAR a6
ENCODING 166
SWIDTH 960 0
DWIDTH 6 0
BBX 9 12 -1 -2
BITMAP
0000
0600
0600
0c00
0c00
0000
0000
1800
1800
3000
3000
0000
ENDCHAR
STARTCHAR a7
ENCODING 167
SWIDTH 960 0
DWIDTH 6 0
BBX 9 12 -1 -2
BITMAP
0000
0700
0d80
0c00
0e00
1b00
0c00
0600
3600
3400
1800
0000
ENDCHAR
STARTCHAR a8
ENCODING 168
SWIDTH 960 0
DWIDTH 6 0
BBX 9 12 -1 -2
BITMAP
0000
0d00
0000
0000
0000
0000
0000
0000
0000
0000
0000
0000
ENDCHAR
STARTCHAR a9
ENCODING 169
SWIDTH 960 0
DWIDTH 6 0
BBX 9 12 -1 -2
BITMAP
0000
0f00
1980
3700
3b00
3b00
6e00
6600
3c00
0000
0000
0000
ENDCHAR
STARTCHAR aa
ENCODING 170
SWIDTH 960 0
DWIDTH 6 0
BBX 9 12 -1 -2
BITMAP
0000
0e00
1a00
1c00
1a00
0000
7c00
0000
0000
0000
0000
0000
ENDCHAR
STARTCHAR ab
ENCODING 171
SWIDTH 960 0
DWIDTH 6 0
BBX 9 12 -1 -2
BITMAP
0000
0000
0000
0000
0d00
3a00
6800
3400
1a00
0000
0000
0000
ENDCHAR
STARTCHAR ac
ENCODING 172
SWIDTH 960 0
DWIDTH 6 0
BBX 9 12 -1 -2
BITMAP
0000
0000
0000
0000
0000
3f00
0600
0600
0000
0000
0000
0000
ENDCHAR
STARTCHAR ad
ENCODING 173
SWIDTH 960 0
DWIDTH 6 0
BBX 9 12 -1 -2
BITMAP
0000
0000
0000
0000
0000
0000
3c00
0000
0000
0000
0000
0000
ENDCHAR
STARTCHAR ae
ENCODING 174
SWIDTH 960 0
DWIDTH 6 0
BBX 9 12 -1 -2
BITMAP
0000
0f80
1980
3680
3580
3680
6b00
6b00
3e00
0000
0000
0000
ENDCHAR
STARTCHAR af
ENCODING 175
SWIDTH 960 0
DWIDTH 6 0
BBX 9 12 -1 -2
BITMAP
0000
0f00
0000
0000
0000
0000
0000
0000
0000
0000
0000
0000
ENDCHAR
STARTCHAR b0
ENCODING 176
SWIDTH 960 0
DWIDTH 6 0
BBX 9 12 -1 -2
BITMAP
0700
0d80
0700
0000
0000
0000
0000
0000
0000
0000
0000
0000
ENDCHAR
STARTCHAR b1
ENCODING 177
SWIDTH 960 0
DWIDTH 6 0
BBX 9 12 -1 -2
BITMAP
0000
0000
0000
0c00
0c00
3f00
1800
1800
7e00
0000
0000
0000
ENDCHAR
STARTCHAR b2
ENCODING 178
SWIDTH 960 0
DWIDTH 6 0
BBX 9 12 -1 -2
BITMAP
0c00
1a00
0c00
1800
3c00
0000
0000
0000
0000
0000
0000
0000
ENDCHAR
STARTCHAR b3
ENCODING 179
SWIDTH 960 0
DWIDTH 6 0
BBX 9 12 -1 -2
BITMAP
1c00
0600
1800
0c00
3800
0000
0000
0000
0000
0000
0000
0000
ENDCHAR
STARTCHAR b4
ENCODING 180
SWIDTH 960 0
DWIDTH 6 0
BBX 9 12 -1 -2
BITMAP
0700
0c00
0000
0000
0000
0000
0000
0000
0000
0000
0000
0000
ENDCHAR
STARTCHAR b5
ENCODING 181
SWIDTH 960 0
DWIDTH 6 0
BBX 9 12 -1 -2
BITMAP
0000
0000
0000
0000
1b00
1b00
3600
3600
3d00
6000
6000
c000
ENDCHAR
STARTCHAR b6
ENCODING 182
SWIDTH 960 0
DWIDTH 6 0
BBX 9 12 -1 -2
BITMAP
0000
0780
0e80
1d00
0d00
0d00
1a00
1a00
1a00
3400
3400
0000
ENDCHAR
STARTCHAR b7
ENCODING 183
SWIDTH 960 0
DWIDTH 6 0
BBX 9 12 -1 -2
BITMAP
0000
0000
0000
0000
0000
0e00
1c00
0000
0000
0000
0000
0000
ENDCHAR
STARTCHAR b8
ENCODING 184
SWIDTH 960 0
DWIDTH 6 0
BBX 9 12 -1 -2
BITMAP
0000
0000
0000
0000
0000
0000
0000
0000
3000
7000
1800
7000
ENDCHAR
STARTCHAR b9
ENCODING 185
SWIDTH 960 0
DWIDTH 6 0
BBX 9 12 -1 -2
BITMAP
0c00
1c00
0c00
1800
1800
0000
0000
0000
0000
0000
0000
0000
ENDCHAR
STARTCHAR ba
ENCODING 186
SWIDTH 960 0
DWIDTH 6 0
BBX 9 12 -1 -2
BITMAP
0000
0c00
1a00
1a00
0c00
0000
7c00
0000
0000
0000
0000
0000
ENDCHAR
STARTCHAR bb
ENCODING 187
SWIDTH 960 0
DWIDTH 6 0
BBX 9 12 -1 -2
BITMAP
0000
0000
0000
3400
1a00
1d00
3400
6800
0000
0000
0000
0000
ENDCHAR
STARTCHAR bc
ENCODING 188
SWIDTH 960 0
DWIDTH 6 0
BBX 9 12 -1 -2
BITMAP
1800
1b00
1a00
1a00
3600
0f00
0c00
0000
0000
0000
0000
0000
ENDCHAR
STARTCHAR bd
ENCODING 189
SWIDTH 960 0
DWIDTH 6 0
BBX 9 12 -1 -2
BITMAP
1800
1b00
1e00
1b00
3300
0e00
1a00
0000
0000
0000
0000
0000
ENDCHAR
STARTCHAR be
ENCODING 190
SWIDTH 960 0
DWIDTH 6 0
BBX 9 12 -1 -2
BITMAP
1c00
0600
1e00
0700
3b00
1d00
1f00
0600
0000
0000
0000
0000
ENDCHAR
STARTCHAR bf
ENCODING 191
SWIDTH 960 0
DWIDTH 6 0
BBX 9 12 -1 -2
BITMAP
0000
0600
0000
0c00
0c00
1800
3000
6600
6c00
3800
0000
0000
ENDCHAR
STARTCHAR c0
ENCODING 192
SWIDTH 960 0
DWIDTH 6 0
BBX 9 12 -1 -2
BITMAP
0600
0300
0600
0c00
1a00
3600
6600
7e00
6600
cc00
0000
0000
ENDCHAR
STARTCHAR c1
ENCODING 193
SWIDTH 960 0
DWIDTH 6 0
BBX 9 12 -1 -2
BITMAP
0600
0c00
0c00
0c00
1a00
3600
6600
7e00
6600
cc00
0000
0000
ENDCHAR
STARTCHAR c2
ENCODING 194
SWIDTH 960 0
DWIDTH 6 0
BBX 9 12 -1 -2
BITMAP
0600
0d00
0e00
0c00
1a00
3600
6600
7e00
6600
cc00
0000
0000
ENDCHAR
STARTCHAR c3
ENCODING 195
SWIDTH 960 0
DWIDTH 6 0
BBX 9 12 -1 -2
BITMAP
0d00
1a00
0600
0c00
1a00
3600
6600
7e00
6600
cc00
0000
0000
ENDCHAR
STARTCHAR c4
ENCODING 196
SWIDTH 960 0
DWIDTH 6 0
BBX 9 12 -1 -2
BITMAP
0d00
0000
0600
0c00
1a00
3600
6600
7e00
6600
cc00
0000
0000
ENDCHAR
STARTCHAR c5
ENCODING 197
SWIDTH 960 0
DWIDTH 6 0
BBX 9 12 -1 -2
BITMAP
0600
0d00
0e00
0c00
1a00
3600
6600
7e00
6600
cc00
0000
0000
ENDCHAR
STARTCHAR c6
ENCODING 198
SWIDTH 960 0
DWIDTH 6 0
BBX 9 12 -1 -2
BITMAP
0000
0f80
0e00
1c00
3400
3f00
6800
6800
6800
dc00
0000
0000
ENDCHAR
STARTCHAR c7
ENCODING 199
SWIDTH 960 0
DWIDTH 6 0
BBX 9 12 -1 -2
BITMAP
0000
0700
0d80
1800
3000
3000
3000
3600
1c00
1800
7000
0000
ENDCHAR
STARTCHAR c8
ENCODING 200
SWIDTH 960 0
DWIDTH 6 0
BBX 9 12 -1 -2
BITMAP
0c00
0600
1f80
3000
3000
3e00
6000
6000
6000
fc00
0000
0000
ENDCHAR
STARTCHAR c9
ENCODING 201
SWIDTH 960 0
DWIDTH 6 0
BBX 9 12 -1 -2
BITMAP
0300
0600
1f80
3000
3000
3e00
6000
6000
6000
fc00
0000
0000
ENDCHAR
STARTCHAR ca
ENCODING 202
SWIDTH 960 0
DWIDTH 6 0
BBX 9 12 -1 -2
BITMAP
0600
0d00
1f80
3000
3000
3e00
6000
6000
6000
fc00
0000
0000
ENDCHAR
STARTCHAR cb
ENCODING 203
SWIDTH 960 0
DWIDTH 6 0
BBX 9 12 -1 -2
BITMAP
0d00
0000
1f80
3000
3000
3e00
6000
6000
6000
fc00
0000
0000
ENDCHAR
STARTCHAR cc
ENCODING 204
SWIDTH 960 0
DWIDTH 6 0
BBX 9 12 -1 -2
BITMAP
0c00
0600
0f00
0c00
0c00
0c00
1800
1800
1800
7800
0000
0000
ENDCHAR
STARTCHAR cd
ENCODING 205
SWIDTH 960 0
DWIDTH 6 0
BBX 9 12 -1 -2
BITMAP
0300
0600
0f00
0c00
0c00
0c00
1800
1800
1800
7800
0000
0000
ENDCHAR
STARTCHAR ce
ENCODING 206
SWIDTH 960 0
DWIDTH 6 0
BBX 9 12 -1 -2
BITMAP
0600
0d00
0000
1e00
0c00
0c00
1800
1800
1800
7800
0000
0000
ENDCHAR
STARTCHAR cf
ENCODING 207
SWIDTH 960 0
DWIDTH 6 0
BBX 9 12 -1 -2
BITMAP
0d00
0000
0f00
0c00
0c00
0c00
1800
1800
1800
7800
0000
0000
ENDCHAR
STARTCHAR d0
ENCODING 208
SWIDTH 960 0
DWIDTH 6 0
BBX 9 12 -1 -2
BITMAP
0000
1e00
1b00
3300
3300
3b00
6600
6600
6c00
f000
0000
0000
ENDCHAR
STARTCHAR d1
ENCODING 209
SWIDTH 960 0
DWIDTH 6 0
BBX 9 12 -1 -2
BITMAP
0d00
1a00
1980
3b00
3500
3500
6e00
6e00
6600
cc00
0000
0000
ENDCHAR
STARTCHAR d2
ENCODING 210
SWIDTH 960 0
DWIDTH 6 0
BBX 9 12 -1 -2
BITMAP
0c00
0600
0f00
1b00
3300
3300
6600
6600
6c00
3800
0000
0000
ENDCHAR
STARTCHAR d3
ENCODING 211
SWIDTH 960 0
DWIDTH 6 0
BBX 9 12 -1 -2
BITMAP
0300
0600
0f00
1b00
3300
3300
6600
6600
6c00
3800
0000
0000
ENDCHAR
STARTCHAR d4
ENCODING 212
SWIDTH 960 0
DWIDTH 6 0
BBX 9 12 -1 -2
BITMAP
0600
0d00
0f00
1b00
3300
3300
6600
6600
6c00
3800
0000
0000
ENDCHAR
STARTCHAR d5
ENCODING 213
SWIDTH 960 0
DWIDTH 6 0
BBX 9 12 -1 -2
BITMAP
0680
0d00
0f00
1b00
3300
3300
6600
6600
6c00
3800
0000
0000
ENDCHAR
STARTCHAR d6
ENCODING 214
SWIDTH 960 0
DWIDTH 6 0
BBX 9 12 -1 -2
BITMAP
0d00
0000
0e00
1b00
3300
3300
6600
6600
6c00
3800
0000
0000
ENDCHAR
STARTCHAR d7
ENCODING 215
SWIDTH 960 0
DWIDTH 6 0
BBX 9 12 -1 -2
BITMAP
0000
0000
0000
3300
1a00
1c00
3400
6600
0000
0000
0000
0000
ENDCHAR
STARTCHAR d8
ENCODING 216
SWIDTH 960 0
DWIDTH 6 0
BBX 9 12 -1 -2
BITMAP
0000
0740
0dc0
1b00
1b00
1d00
3a00
3600
7400
d800
0000
0000
ENDCHAR
STARTCHAR d9
ENCODING 217
SWIDTH 960 0
DWIDTH 6 0
BBX 9 12 -1 -2
BITMAP
0c00
0600
1980
3300
3300
3300
6600
6600
6c00
3800
0000
0000
ENDCHAR
STARTCHAR da
ENCODING 218
SWIDTH 960 0
DWIDTH 6 0
BBX 9 12 -1 -2
BITMAP
0300
0600
1980
3300
3300
3300
6600
6600
6c00
3800
0000
0000
ENDCHAR
STARTCHAR db
ENCODING 219
SWIDTH 960 0
DWIDTH 6 0
BBX 9 12 -1 -2
BITMAP
0600
0d00
0000
3300
3300
3300
6600
6600
6c00
3800
0000
0000
ENDCHAR
STARTCHAR dc
ENCODING 220
SWIDTH 960 0
DWIDTH 6 0
BBX 9 12 -1 -2
BITMAP
0d00
1a00
0000
3300
3300
3300
6600
6600
6c00
3800
0000
0000
ENDCHAR
STARTCHAR dd
ENCODING 221
SWIDTH 960 0
DWIDTH 6 0
BBX 9 12 -1 -2
BITMAP
0300
0600
1b00
1b00
1a00
1c00
0c00
1800
1800
3000
0000
0000
ENDCHAR
STARTCHAR de
ENCODING 222
SWIDTH 960 0
DWIDTH 6 0
BBX 9 12 -1 -2
BITMAP
0000
0c00
0c00
1e00
1b00
1b00
3600
3600
3c00
6000
6000
0000
ENDCHAR
STARTCHAR df
ENCODING 223
SWIDTH 960 0
DWIDTH 6 0
BBX 9 12 -1 -2
BITMAP
0000
0600
0d00
1b00
1b00
1c00
3600
3600
3400
6800
6000
6000
ENDCHAR
STARTCHAR e0
ENCODING 224
SWIDTH 960 0
DWIDTH 6 0
BBX 9 12 -1 -2
BITMAP
0c00
0600
0000
1e00
3300
0f00
3a00
6600
6e00
3400
0000
0000
ENDCHAR
STARTCHAR e1
ENCODING 225
SWIDTH 960 0
DWIDTH 6 0
BBX 9 12 -1 -2
BITMAP
0300
0600
0000
1e00
3300
0f00
3a00
6600
6e00
3400
0000
0000
ENDCHAR
STARTCHAR e2
ENCODING 226
SWIDTH 960 0
DWIDTH 6 0
BBX 9 12 -1 -2
BITMAP
0600
0d00
0000
1e00
3300
0f00
3a00
6600
6e00
3400
0000
0000
ENDCHAR
STARTCHAR e3
ENCODING 227
SWIDTH 960 0
DWIDTH 6 0
BBX 9 12 -1 -2
BITMAP
0d00
1a00
0000
1e00
3300
0f00
3a00
6600
6e00
3400
0000
0000
ENDCHAR
STARTCHAR e4
ENCODING 228
SWIDTH 960 0
DWIDTH 6 0
BBX 9 12 -1 -2
BITMAP
0000
0d00
0000
1e00
3300
0f00
3a00
6600
6e00
3400
0000
0000
ENDCHAR
STARTCHAR e5
ENCODING 229
SWIDTH 960 0
DWIDTH 6 0
BBX 9 12 -1 -2
BITMAP
0600
0d00
0600
1e00
3300
0f00
3a00
6600
6e00
3400
0000
0000
ENDCHAR
STARTCHAR e6
ENCODING 230
SWIDTH 960 0
DWIDTH 6 0
BBX 9 12 -1 -2
BITMAP
0000
0000
0000
1a00
3500
0d00
3e00
6800
6e00
7800
0000
0000
ENDCHAR
STARTCHAR e7
ENCODING 231
SWIDTH 960 0
DWIDTH 6 0
BBX 9 12 -1 -2
BITMAP
0000
0000
0000
1e00
3300
3000
6000
6600
3c00
1800
7000
0000
ENDCHAR
STARTCHAR e8
ENCODING 232
SWIDTH 960 0
DWIDTH 6 0
BBX 9 12 -1 -2
BITMAP
0c00
0600
0000
1e00
3300
3300
7e00
6000
6e00
3800
0000
0000
ENDCHAR
STARTCHAR e9
ENCODING 233
SWIDTH 960 0
DWIDTH 6 0
BBX 9 12 -1 -2
BITMAP
0300
0600
0000
1e00
3300
3300
7e00
6000
6e00
3800
0000
0000
ENDCHAR
STARTCHAR ea
ENCODING 234
SWIDTH 960 0
DWIDTH 6 0
BBX 9 12 -1 -2
BITMAP
0600
0d00
0000
1e00
3300
3300
7e00
6000
6e00
3800
0000
0000
ENDCHAR
STARTCHAR eb
ENCODING 235
SWIDTH 960 0
DWIDTH 6 0
BBX 9 12 -1 -2
BITMAP
0000
0d00
0000
1e00
3300
3300
7e00
6000
6e00
3800
0000
0000
ENDCHAR
STARTCHAR ec
ENCODING 236
SWIDTH 960 0
DWIDTH 6 0
BBX 9 12 -1 -2
BITMAP
0c00
0600
0000
0000
0c00
0c00
1800
1800
1800
3000
0000
0000
ENDCHAR
STARTCHAR ed
ENCODING 237
SWIDTH 960 0
DWIDTH 6 0
BBX 9 12 -1 -2
BITMAP
0300
0600
0000
0000
0c00
0c00
1800
1800
1800
3000
0000
0000
ENDCHAR
STARTCHAR ee
ENCODING 238
SWIDTH 960 0
DWIDTH 6 0
BBX 9 12 -1 -2
BITMAP
0600
0d00
0000
0000
0c00
0c00
1800
1800
1800
3000
0000
0000
ENDCHAR
STARTCHAR ef
ENCODING 239
SWIDTH 960 0
DWIDTH 6 0
BBX 9 12 -1 -2
BITMAP
0000
0d00
0000
0000
0c00
0c00
1800
1800
1800
3000
0000
0000
ENDCHAR
STARTCHAR f0
ENCODING 240
SWIDTH 960 0
DWIDTH 6 0
BBX 9 12 -1 -2
BITMAP
1a00
0c00
1a00
0600
1e00
3600
6600
6600
6c00
3800
0000
0000
ENDCHAR
STARTCHAR f1
ENCODING 241
SWIDTH 960 0
DWIDTH 6 0
BBX 9 12 -1 -2
BITMAP
0d00
1a00
0000
0000
3400
3a00
6600
6600
6600
cc00
0000
0000
ENDCHAR
STARTCHAR f2
ENCODING 242
SWIDTH 960 0
DWIDTH 6 0
BBX 9 12 -1 -2
BITMAP
0c00
0600
0000
1e00
3300
3300
6600
6600
6c00
3800
0000
0000
ENDCHAR
STARTCHAR f3
ENCODING 243
SWIDTH 960 0
DWIDTH 6 0
BBX 9 12 -1 -2
BITMAP
0300
0600
0000
1e00
3300
3300
6600
6600
6c00
3800
0000
0000
ENDCHAR
STARTCHAR f4
ENCODING 244
SWIDTH 960 0
DWIDTH 6 0
BBX 9 12 -1 -2
BITMAP
0600
0d00
0000
1e00
3300
3300
6600
6600
6c00
3800
0000
0000
ENDCHAR
STARTCHAR f5
ENCODING 245
SWIDTH 960 0
DWIDTH 6 0
BBX 9 12 -1 -2
BITMAP
0d00
1a00
0000
1e00
3300
3300
6600
6600
6c00
3800
0000
0000
ENDCHAR
STARTCHAR f6
ENCODING 246
SWIDTH 960 0
DWIDTH 6 0
BBX 9 12 -1 -2
BITMAP
0000
0d00
0000
1e00
3300
3300
6600
6600
6c00
3800
0000
0000
ENDCHAR
STARTCHAR f7
ENCODING 247
SWIDTH 960 0
DWIDTH 6 0
BBX 9 12 -1 -2
BITMAP
0000
0000
0000
0c00
0000
3f00
0000
1800
0000
0000
0000
0000
ENDCHAR
STARTCHAR f8
ENCODING 248
SWIDTH 960 0
DWIDTH 6 0
BBX 9 12 -1 -2
BITMAP
0000
0000
0000
0e80
1b00
1f00
3a00
3600
7400
3800
0000
0000
ENDCHAR
STARTCHAR f9
ENCODING 249
SWIDTH 960 0
DWIDTH 6 0
BBX 9 12 -1 -2
BITMAP
0c00
0600
0000
3300
3300
3300
6600
6600
6e00
3400
0000
0000
ENDCHAR
STARTCHAR fa
ENCODING 250
SWIDTH 960 0
DWIDTH 6 0
BBX 9 12 -1 -2
BITMAP
0300
0600
0000
3300
3300
3300
6600
6600
6e00
3400
0000
0000
ENDCHAR
STARTCHAR fb
ENCODING 251
SWIDTH 960 0
DWIDTH 6 0
BBX 9 12 -1 -2
BITMAP
0600
0d00
0000
3300
3300
3300
6600
6600
6e00
3400
0000
0000
ENDCHAR
STARTCHAR fc
ENCODING 252
SWIDTH 960 0
DWIDTH 6 0
BBX 9 12 -1 -2
BITMAP
0000
0d00
0000
3300
3300
3300
6600
6600
6e00
3400
0000
0000
ENDCHAR
STARTCHAR fd
ENCODING 253
SWIDTH 960 0
DWIDTH 6 0
BBX 9 12 -1 -2
BITMAP
0300
0600
0000
3300
3300
3600
3600
3400
3800
3000
6000
c000
ENDCHAR
STARTCHAR fe
ENCODING 254
SWIDTH 960 0
DWIDTH 6 0
BBX 9 12 -1 -2
BITMAP
0000
0000
0c00
1800
1c00
1a00
3600
3600
3400
7800
6000
6000
ENDCHAR
STARTCHAR ff
ENCODING 255
SWIDTH 960 0
DWIDTH 6 0
BBX 9 12 -1 -2
BITMAP
0000
0d00
0000
3300
3300
3600
3600
3400
3800
3000
6000
c000
ENDCHAR
ENDFONT
